<svg width="128" height="38" viewBox="0 0 128 38" fill="none" xmlns="http://www.w3.org/2000/svg">
<g clip-path="url(#clip0_805_6608)">
<path d="M19.1582 36.1835C28.6827 36.1835 36.4038 28.5794 36.4038 19.1992C36.4038 9.81899 28.6827 2.21484 19.1582 2.21484C9.63372 2.21484 1.9126 9.81899 1.9126 19.1992C1.9126 28.5794 9.63372 36.1835 19.1582 36.1835Z" fill="white"></path>
<path d="M21.6377 -0.193323C17.9209 -0.670635 14.1459 -0.0350138 10.7903 1.63316C7.43469 3.30133 4.64911 5.92712 2.78585 9.17847C0.922595 12.4298 0.0653426 16.1607 0.322508 19.8993C0.579673 23.6378 1.93971 27.2162 4.23061 30.1818C6.52152 33.1474 9.6404 35.367 13.1928 36.56C16.7453 37.753 20.5717 37.8657 24.1882 36.8839C27.8047 35.9022 31.0488 33.87 33.5104 31.0445C35.9719 28.2189 37.5403 24.7268 38.0171 21.0099C38.6565 16.0262 37.29 10.9926 34.2184 7.01631C31.1467 3.04001 26.6214 0.446661 21.6377 -0.193323V-0.193323Z" fill="white"></path>
<path d="M21.6377 -0.193323C17.9209 -0.670635 14.1459 -0.0350138 10.7903 1.63316C7.43469 3.30133 4.64911 5.92712 2.78585 9.17847C0.922595 12.4298 0.0653426 16.1607 0.322508 19.8993C0.579673 23.6378 1.93971 27.2162 4.23061 30.1818C6.52152 33.1474 9.6404 35.367 13.1928 36.56C16.7453 37.753 20.5717 37.8657 24.1882 36.8839C27.8047 35.9022 31.0488 33.87 33.5104 31.0445C35.9719 28.2189 37.5403 24.7268 38.0171 21.0099C38.6565 16.0262 37.29 10.9926 34.2184 7.01631C31.1467 3.04001 26.6214 0.446661 21.6377 -0.193323V-0.193323Z" fill="#FF6C37"></path>
<path d="M13.9759 19.7966C13.9833 19.8116 13.9956 19.8236 14.0108 19.8305C14.026 19.8374 14.0432 19.8388 14.0593 19.8345L17.0908 19.1808L15.8157 17.8887L13.9987 19.7057C13.9843 19.7153 13.9741 19.73 13.9699 19.7468C13.9657 19.7636 13.9678 19.7813 13.9759 19.7966Z" fill="white"></path>
<path d="M28.1707 6.77931C27.7482 6.77974 27.3312 6.87492 26.9504 7.05784C26.5696 7.24076 26.2347 7.50676 25.9703 7.83626C25.7059 8.16576 25.5188 8.55036 25.4227 8.96176C25.3266 9.37315 25.324 9.80085 25.4151 10.2134C25.5062 10.6259 25.6886 11.0127 25.949 11.3454C26.2094 11.6781 26.5411 11.9481 26.9197 12.1357C27.2982 12.3232 27.714 12.4234 28.1365 12.429C28.5589 12.4345 28.9772 12.3453 29.3605 12.1677L27.4393 10.2466C27.4173 10.2246 27.3998 10.1984 27.3879 10.1696C27.3759 10.1409 27.3698 10.11 27.3698 10.0789C27.3698 10.0477 27.3759 10.0169 27.3879 9.9881C27.3998 9.95933 27.4173 9.9332 27.4393 9.9112L29.9498 7.40266C29.4456 6.9973 28.8176 6.77726 28.1707 6.77931V6.77931Z" fill="white"></path>
<path d="M30.2946 7.72852L27.9414 10.0722L29.7868 11.9176C29.9228 11.8221 30.0496 11.7143 30.1657 11.5955C30.6715 11.0863 30.9659 10.4046 30.9898 9.68733C31.0137 8.97003 30.7653 8.27025 30.2946 7.72852V7.72852Z" fill="white"></path>
<path d="M25.5865 12.0547H25.5448C25.4958 12.0543 25.447 12.0588 25.3989 12.068H25.3818C25.329 12.0794 25.2771 12.0946 25.2265 12.1134L25.1867 12.1324C25.1486 12.1483 25.1118 12.1673 25.0768 12.1892L25.0351 12.2158C24.9892 12.2474 24.9461 12.2829 24.9063 12.3219L17.9282 19.3018L18.7922 20.1658L26.1814 13.6803C26.2231 13.6437 26.2612 13.6031 26.2951 13.5591L26.3273 13.5174C26.3525 13.4804 26.3753 13.4418 26.3955 13.4018C26.4068 13.3791 26.4163 13.3563 26.4258 13.3336C26.4385 13.3034 26.4493 13.2724 26.458 13.2408C26.458 13.218 26.4713 13.1953 26.4769 13.1726C26.4863 13.1257 26.4926 13.0782 26.4959 13.0305V12.9679C26.4959 12.9338 26.4959 12.8997 26.4959 12.8656C26.4959 12.8315 26.4959 12.8202 26.4864 12.7974C26.4514 12.6186 26.3641 12.4542 26.2356 12.325C26.1071 12.1959 25.9432 12.1077 25.7646 12.0718H25.7286C25.6817 12.0627 25.6342 12.057 25.5865 12.0547Z" fill="white"></path>
<path d="M16.1411 17.5529L17.5735 18.9777L24.5705 11.9807C24.7981 11.7582 25.0949 11.6198 25.4117 11.5885C24.1745 10.6412 22.8255 10.8894 16.1411 17.5529Z" fill="white"></path>
<path d="M26.575 13.9531L26.4898 14.0365L19.1006 20.52L20.3567 21.7743C23.4716 18.8281 26.2359 16.0221 26.575 13.9531Z" fill="white"></path>
<path d="M8.14401 29.1421C8.14785 29.1555 8.15573 29.1675 8.16657 29.1763C8.17742 29.1851 8.19071 29.1904 8.20464 29.1914L11.4256 29.413L9.61995 27.6074L8.15917 29.0663C8.1497 29.0762 8.14324 29.0886 8.14056 29.102C8.13787 29.1154 8.13907 29.1293 8.14401 29.1421V29.1421Z" fill="white"></path>
<path d="M9.95703 27.272L11.8612 29.1762C11.8838 29.2003 11.914 29.216 11.9468 29.2205C11.9796 29.2249 12.0129 29.218 12.0412 29.2008C12.0707 29.1862 12.0942 29.1617 12.1077 29.1316C12.1211 29.1016 12.1238 29.0677 12.1151 29.036L11.7949 27.668C11.7741 27.5794 11.7835 27.4863 11.8216 27.4036C11.8597 27.3209 11.9243 27.2533 12.0052 27.2114C15.3436 25.5384 18.0359 23.8162 20.012 22.0958L18.6858 20.7695L15.8438 21.3815L9.95703 27.272Z" fill="white"></path>
<path d="M18.2784 20.3686L17.566 19.6562L16.5808 20.6396C16.5737 20.6481 16.5698 20.6588 16.5698 20.6699C16.5698 20.681 16.5737 20.6917 16.5808 20.7002C16.5854 20.7103 16.5935 20.7184 16.6036 20.7229C16.6137 20.7275 16.6252 20.7281 16.6357 20.7248L18.2784 20.3686Z" fill="white"></path>
<path d="M30.3606 9.25715C30.3509 9.22733 30.3349 9.19994 30.3137 9.17681C30.2926 9.15369 30.2667 9.13536 30.2378 9.12306C30.209 9.11077 30.1778 9.10479 30.1465 9.10553C30.1151 9.10627 30.0843 9.11371 30.0561 9.12735C30.0278 9.14099 30.0028 9.16052 29.9828 9.18462C29.9627 9.20872 29.948 9.23684 29.9397 9.26708C29.9314 9.29732 29.9297 9.32899 29.9346 9.35996C29.9396 9.39092 29.9511 9.42047 29.9684 9.44662C30.025 9.56056 30.0475 9.68845 30.033 9.81486C30.0185 9.94127 29.9678 10.0608 29.887 10.159C29.8604 10.1911 29.8435 10.2301 29.8382 10.2714C29.8329 10.3127 29.8395 10.3547 29.8572 10.3924C29.8749 10.4302 29.9029 10.4621 29.938 10.4845C29.9731 10.5069 30.0139 10.5189 30.0556 10.519C30.0878 10.5187 30.1195 10.5114 30.1486 10.4976C30.1777 10.4839 30.2035 10.464 30.2242 10.4394C30.3583 10.2764 30.4425 10.0781 30.4667 9.86839C30.4909 9.65869 30.454 9.44645 30.3606 9.25715V9.25715Z" fill="#FF6C37"></path>
<path d="M52.6429 13.217C52.1061 12.9857 51.4686 12.8535 50.7976 12.8535H47.6437C47.4424 12.8535 47.2746 12.9196 47.174 13.0187C47.0398 13.1179 46.9727 13.2831 46.9727 13.4483V24.4848C46.9727 24.6831 47.0733 24.8483 47.2746 24.9805C47.4424 25.0796 47.6101 25.1126 47.8115 25.1126C48.0128 25.1126 48.1805 25.1126 48.3483 24.9805C48.5496 24.8813 48.6167 24.7161 48.6167 24.4848V20.3544H50.7305C51.435 20.3544 52.0725 20.2222 52.6094 19.9909C53.1797 19.7596 53.6495 19.33 53.9514 18.8013C54.2869 18.2726 54.4547 17.5457 54.4547 16.6535V16.5213C54.4547 15.6292 54.2869 14.9022 53.985 14.3735C53.6495 13.8448 53.2133 13.4483 52.6429 13.184V13.217ZM48.5831 14.3405H50.6969C51.3344 14.3405 51.8712 14.5057 52.2403 14.8692C52.6094 15.2326 52.7771 15.7944 52.7771 16.5544V16.7526C52.7771 17.5126 52.6094 18.0744 52.2403 18.4048C51.8712 18.7683 51.3679 18.9335 50.6969 18.9335H48.5831V14.3405Z" fill="black"></path>
<path d="M64.3527 13.217C63.7823 12.9857 63.1448 12.8535 62.4738 12.8535C61.8027 12.8535 61.1317 12.9857 60.5949 13.217C60.0245 13.4483 59.5883 13.8779 59.2528 14.4066C58.9173 14.9353 58.7495 15.6622 58.7495 16.5544V21.5109C58.7495 22.4031 58.9173 23.13 59.2528 23.6587C59.5883 24.1874 60.0245 24.5839 60.5949 24.8483C61.1652 25.0796 61.7692 25.2118 62.4738 25.2118C63.1783 25.2118 63.8158 25.0796 64.3527 24.8483C64.923 24.617 65.3928 24.1874 65.6947 23.6587C66.0302 23.13 66.198 22.4031 66.198 21.5109V16.5544C66.198 15.6622 66.0302 14.9353 65.6947 14.4066C65.3592 13.8779 64.923 13.4813 64.3527 13.217ZM62.4738 14.3405C63.1112 14.3405 63.6481 14.5057 64.0171 14.8692C64.3862 15.2326 64.554 15.7944 64.554 16.5544V21.5109C64.554 22.2709 64.3862 22.8326 64.0171 23.1961C63.6481 23.5596 63.1448 23.7248 62.4738 23.7248C61.8027 23.7248 61.2994 23.5596 60.9639 23.1961C60.5949 22.8326 60.4271 22.2709 60.4271 21.5109V16.5544C60.4271 15.7944 60.5949 15.2326 60.9639 14.8692C61.333 14.5057 61.8363 14.3405 62.4738 14.3405Z" fill="black"></path>
<path d="M76.8675 18.9661C76.532 18.7017 76.1629 18.4704 75.7603 18.2722C75.3577 18.1069 74.9886 17.9417 74.586 17.7765C74.2169 17.6443 73.8478 17.4791 73.5459 17.347C73.2439 17.1817 72.9755 16.9835 72.8077 16.7522C72.64 16.5209 72.5393 16.2235 72.5393 15.86C72.5393 15.4965 72.64 15.1661 72.8077 14.9348C73.0091 14.7035 73.2439 14.5383 73.5794 14.4391C73.915 14.34 74.284 14.2739 74.6531 14.2739C75.0222 14.2739 75.4919 14.34 75.7603 14.4061C76.0623 14.5052 76.2636 14.6043 76.4313 14.7035C76.6326 14.8356 76.8004 14.8687 76.9346 14.8687C77.0688 14.8687 77.2366 14.8026 77.3708 14.7035C77.4714 14.6043 77.5385 14.4722 77.6056 14.34C77.6728 14.2078 77.6728 14.1087 77.6728 13.9765C77.6728 13.7452 77.5721 13.547 77.3372 13.3817C77.1359 13.2496 76.8675 13.1174 76.5655 13.0183C76.2636 12.9191 75.9281 12.853 75.5925 12.82C75.257 12.7869 74.9215 12.7539 74.6195 12.7539C74.3176 12.7539 73.7807 12.7539 73.3446 12.8861C72.9084 12.9852 72.4722 13.1504 72.1032 13.3817C71.7341 13.613 71.3986 13.9435 71.1637 14.373C70.9288 14.7696 70.8282 15.2983 70.8282 15.9261C70.8282 16.5539 70.9288 17.0165 71.1302 17.413C71.3315 17.8096 71.5999 18.1069 71.969 18.3713C72.3045 18.6026 72.6735 18.8009 73.0762 18.9661C73.4788 19.1313 73.8479 19.2965 74.2505 19.4287C74.6195 19.5939 74.9886 19.7591 75.2906 19.9574C75.5925 20.1556 75.861 20.3869 76.0287 20.6513C76.23 20.9156 76.2971 21.2791 76.2971 21.7417C76.2971 22.2043 76.1965 22.5348 76.0287 22.7991C75.861 23.0635 75.5925 23.2948 75.2906 23.427C74.9551 23.5591 74.586 23.6252 74.1163 23.6252C73.6465 23.6252 73.2439 23.5591 72.942 23.427C72.64 23.2948 72.4051 23.1626 72.2038 22.9974C72.0025 22.8322 71.8347 22.6669 71.7341 22.5348C71.5663 22.3696 71.4321 22.3035 71.2308 22.3035C71.0295 22.3035 70.9624 22.3696 70.8617 22.4687C70.7611 22.5678 70.6604 22.6669 70.5933 22.7991C70.5262 22.9313 70.4927 23.0635 70.4927 23.1956C70.4927 23.46 70.6604 23.7574 70.9624 24.0548C71.2644 24.3522 71.7005 24.6165 72.2374 24.8478C72.7742 25.0791 73.4452 25.1783 74.1498 25.1783C74.8544 25.1783 75.5254 25.0461 76.0958 24.7817C76.6662 24.5174 77.1024 24.1209 77.4379 23.5922C77.7734 23.0635 77.9412 22.3696 77.9412 21.5765C77.9412 20.7835 77.8405 20.3869 77.6392 19.9243C77.4379 19.4948 77.1359 19.1313 76.8004 18.8669L76.8675 18.9661Z" fill="black"></path>
<path d="M88.9457 12.8535H82.1347C81.9334 12.8535 81.7656 12.9526 81.665 13.1179C81.5643 13.2831 81.5308 13.4483 81.5308 13.6135C81.5308 13.7787 81.5979 13.977 81.6985 14.1422C81.7992 14.3074 81.9669 14.4066 82.1682 14.4066H84.7517V24.5179C84.7517 24.7161 84.8524 24.8813 85.0201 25.0135C85.1879 25.1126 85.3557 25.1457 85.557 25.1457C85.7583 25.1457 85.926 25.1457 86.0938 25.0135C86.2951 24.9144 86.3622 24.7492 86.3622 24.5179V14.4066H88.9457C89.147 14.4066 89.3148 14.3074 89.4154 14.1422C89.5161 13.977 89.5496 13.8118 89.5496 13.6135C89.5496 13.4153 89.5161 13.2831 89.4154 13.1179C89.3148 12.9526 89.147 12.8535 88.9457 12.8535Z" fill="black"></path>
<path d="M102.635 13.0187C102.467 12.9196 102.266 12.8535 102.064 12.8535C101.863 12.8535 101.695 12.8535 101.561 12.9526C101.427 13.0518 101.293 13.1179 101.159 13.2831C101.058 13.4153 100.924 13.5805 100.823 13.7787L98.3067 18.5039L95.7903 13.7787C95.6897 13.5805 95.589 13.4153 95.4548 13.2831C95.3541 13.1509 95.2199 13.0518 95.0522 12.9526C94.918 12.8866 94.7167 12.8535 94.5489 12.8535C94.3811 12.8535 94.1798 12.9196 94.0121 13.0187C93.8108 13.1509 93.7437 13.3492 93.7437 13.6466V24.4848C93.7437 24.6831 93.8443 24.8483 94.0456 24.9805C94.2134 25.0796 94.3811 25.1126 94.5824 25.1126C94.7838 25.1126 94.9515 25.1126 95.1193 24.9805C95.3206 24.8813 95.3877 24.7161 95.3877 24.4848V16.3231L97.6692 20.5857C97.7699 20.7509 97.8705 20.85 97.9712 20.9161C98.0718 20.9822 98.206 21.0153 98.3067 21.0153C98.4074 21.0153 98.5416 21.0153 98.6758 20.9161C98.7764 20.85 98.8771 20.7179 98.9777 20.5857L101.259 16.3561V24.4848C101.259 24.6831 101.36 24.8483 101.528 24.9805C101.695 25.0796 101.863 25.1126 102.064 25.1126C102.266 25.1126 102.434 25.1126 102.601 24.9805C102.803 24.8813 102.87 24.7161 102.87 24.4848V13.6466C102.87 13.3492 102.769 13.1509 102.601 13.0187H102.635Z" fill="black"></path>
<path d="M112.533 13.3156C112.466 13.1174 112.365 12.9852 112.164 12.8861C111.962 12.787 111.761 12.7539 111.56 12.7539C111.358 12.7539 111.157 12.7539 110.956 12.8861C110.754 12.9852 110.62 13.1174 110.553 13.3156L107.131 24.253V24.4183C107.131 24.5504 107.198 24.6826 107.299 24.8148C107.399 24.9139 107.533 25.013 107.668 25.0461C107.835 25.1122 107.97 25.1122 108.104 25.1122C108.238 25.1122 108.406 25.1122 108.506 25.013C108.641 24.9469 108.708 24.8478 108.775 24.6826L109.479 22.3365H113.673L114.412 24.6826C114.445 24.8148 114.546 24.9469 114.646 25.013C114.747 25.0791 114.881 25.1122 115.016 25.1122C115.15 25.1122 115.317 25.1122 115.452 25.013C115.586 24.9469 115.72 24.8809 115.821 24.7817C115.955 24.6826 115.989 24.5504 115.989 24.3852C115.989 24.22 115.989 24.2861 115.955 24.22L112.566 13.2826H112.533V13.3156ZM109.849 20.9817L111.526 15.3643L113.204 20.9817H109.815H109.849Z" fill="black"></path>
<path d="M127.463 12.9857C127.296 12.8866 127.128 12.8535 126.927 12.8535C126.725 12.8535 126.557 12.8535 126.39 12.9857C126.188 13.0848 126.088 13.25 126.088 13.4483V21.3126L122.196 13.7787C122.095 13.5805 121.994 13.4153 121.894 13.2831C121.793 13.1509 121.659 13.0518 121.525 12.9526C121.39 12.8866 121.223 12.8535 121.021 12.8535C120.82 12.8535 120.652 12.8535 120.485 12.9857C120.283 13.0848 120.183 13.25 120.183 13.4813V24.5179C120.183 24.7161 120.283 24.8813 120.485 25.0135C120.652 25.1126 120.82 25.1457 121.021 25.1457C121.223 25.1457 121.39 25.1457 121.558 25.0135C121.76 24.9144 121.827 24.7492 121.827 24.5179V16.6535L125.954 24.4518C126.054 24.65 126.188 24.8153 126.356 24.9474C126.524 25.0796 126.725 25.1457 126.927 25.1457C127.128 25.1457 127.296 25.1457 127.463 25.0135C127.665 24.9144 127.732 24.7492 127.732 24.5179V13.4813C127.732 13.2831 127.631 13.1179 127.43 13.0187H127.463V12.9857Z" fill="black"></path>
</g>
<defs>
<clipPath id="clip0_805_6608">
<rect width="128" height="38" fill="white"></rect>
</clipPath>
</defs>
</svg>